<svg width="116" height="116" viewBox="0 0 116 116" fill="none" xmlns="http://www.w3.org/2000/svg" xmlns:xlink="http://www.w3.org/1999/xlink">
<path d="M76.014,52.819C76.014,52.819 101.222,112.852 76.796,111.886C49.12,110.779 76.014,52.819 76.014,52.819Z" transform="rotate(-68.282 75.871 82.358)" fill="#ECD7CA"/>
<path d="M77.212,67.041C77.212,67.041 57.702,129.129 39.617,112.784C19.125,94.258 77.212,67.041 77.212,67.041Z" transform="rotate(-68.282 56.225 91.283)" fill="#ECD7CA"/>
<path d="M68.553,76.21C68.553,76.21 13.445,111.314 10.168,87.239C6.451,59.959 68.553,76.21 68.553,76.21Z" transform="rotate(-68.282 39.28 83.541)" fill="#ECD7CA"/>
<path d="M52.749,79.949C52.749,79.949 -12.17,71.628 0.895,51.09C15.692,27.83 52.749,79.949 52.749,79.949Z" transform="rotate(-68.282 25.953 62.53)" fill="#ECD7CA"/>
<path d="M42.855,74.122C42.855,74.122 -1.484,26.28 21.805,18.891C48.191,10.52 42.855,74.122 42.855,74.122Z" transform="rotate(-68.282 29.17 46.127)" fill="#ECD7CA"/>
<path d="M36.864,57.518C36.864,57.518 33.834,-7.461 56.452,1.755C82.083,12.199 36.864,57.518 36.864,57.518Z" transform="rotate(-68.282 50.523 29.189)" fill="#ECD7CA"/>
<path d="M40.64,46.834C40.64,46.834 80.338,-4.885 91.706,16.626C104.584,41.006 40.64,46.834 40.64,46.834Z" transform="rotate(-68.282 67.03 29.112)" fill="#ECD7CA"/>
<path d="M55.404,39.425C55.404,39.425 119.267,25.179 114.064,48.917C108.166,75.814 55.404,39.425 55.404,39.425Z" transform="rotate(-68.282 84.885 47.005)" fill="#ECD7CA"/>
<path d="M67.616,40.878C67.616,40.878 125.751,70.759 106.413,85.618C84.499,102.458 67.616,40.878 67.616,40.878Z" transform="rotate(-68.282 88.985 64.706)" fill="#ECD7CA"/>
<path d="M71.775,59.476C71.775,59.981 71.748,60.485 71.7,60.987C71.65,61.492 71.575,61.989 71.477,62.484C71.379,62.979 71.254,63.47 71.108,63.954C70.962,64.436 70.79,64.91 70.597,65.378C70.404,65.845 70.187,66.3 69.947,66.747C69.71,67.191 69.449,67.625 69.168,68.046C68.887,68.463 68.586,68.87 68.264,69.261C67.943,69.651 67.601,70.024 67.245,70.381C66.886,70.738 66.511,71.077 66.121,71.397C65.729,71.72 65.322,72.02 64.899,72.299C64.479,72.581 64.046,72.841 63.599,73.079C63.152,73.315 62.695,73.53 62.228,73.725C61.758,73.917 61.284,74.089 60.796,74.237C60.312,74.382 59.821,74.506 59.327,74.604C58.829,74.701 58.328,74.775 57.824,74.826C57.319,74.876 56.815,74.9 56.307,74.9C55.802,74.9 55.295,74.876 54.794,74.826C54.289,74.775 53.788,74.701 53.291,74.604C52.793,74.506 52.302,74.382 51.818,74.237C51.334,74.089 50.856,73.917 50.389,73.725C49.922,73.53 49.465,73.315 49.018,73.079C48.571,72.841 48.138,72.581 47.715,72.299C47.295,72.02 46.889,71.72 46.496,71.397C46.103,71.077 45.731,70.738 45.372,70.381C45.013,70.024 44.675,69.651 44.353,69.261C44.031,68.87 43.73,68.463 43.449,68.046C43.168,67.625 42.907,67.191 42.667,66.747C42.43,66.3 42.213,65.845 42.02,65.378C41.824,64.91 41.655,64.436 41.509,63.954C41.36,63.47 41.238,62.979 41.14,62.484C41.039,61.989 40.964,61.492 40.917,60.987C40.866,60.485 40.842,59.981 40.842,59.476C40.842,58.971 40.866,58.467 40.917,57.965C40.964,57.461 41.039,56.963 41.14,56.468C41.238,55.97 41.36,55.482 41.509,54.998C41.655,54.517 41.824,54.039 42.02,53.574C42.213,53.107 42.43,52.649 42.667,52.205C42.907,51.761 43.168,51.327 43.449,50.906C43.73,50.486 44.031,50.082 44.353,49.692C44.675,49.301 45.013,48.928 45.372,48.571C45.731,48.211 46.103,47.875 46.496,47.552C46.889,47.232 47.295,46.933 47.715,46.65C48.138,46.371 48.571,46.112 49.018,45.873C49.465,45.634 49.922,45.418 50.389,45.227C50.856,45.032 51.334,44.863 51.818,44.715C52.302,44.571 52.793,44.446 53.291,44.349C53.788,44.251 54.289,44.177 54.794,44.126C55.295,44.076 55.802,44.052 56.307,44.052C56.815,44.052 57.319,44.076 57.824,44.126C58.328,44.177 58.829,44.251 59.327,44.349C59.821,44.446 60.312,44.571 60.796,44.715C61.284,44.863 61.758,45.032 62.228,45.227C62.695,45.418 63.152,45.634 63.599,45.873C64.046,46.112 64.479,46.371 64.899,46.65C65.322,46.933 65.729,47.232 66.121,47.552C66.511,47.875 66.886,48.211 67.245,48.571C67.601,48.928 67.943,49.301 68.264,49.692C68.586,50.082 68.887,50.486 69.168,50.906C69.449,51.327 69.71,51.761 69.947,52.205C70.187,52.649 70.404,53.107 70.597,53.574C70.79,54.039 70.962,54.517 71.108,54.998C71.254,55.482 71.379,55.97 71.477,56.468C71.575,56.963 71.65,57.461 71.7,57.965C71.748,58.467 71.775,58.971 71.775,59.476Z" transform="rotate(-68.282 56.309 59.476)" fill="#FFFFFF"/>
</svg>
