<svg width="112" height="84" viewBox="0 0 112 84" fill="none" xmlns="http://www.w3.org/2000/svg" xmlns:xlink="http://www.w3.org/1999/xlink">
<path d="M57.977,59.177C57.975,59.177 57.972,59.177 57.971,59.177C57.968,59.177 57.966,59.177 57.963,59.177C57.953,59.177 57.944,59.177 57.934,59.177C40.753,59.177 28.937,61.567 25.051,63.71C28.942,65.841 40.745,68.224 57.91,68.244L58.031,68.244C75.197,68.224 87,65.841 90.89,63.71C87.004,61.567 75.188,59.177 58.008,59.177C57.997,59.177 57.987,59.177 57.977,59.177Z" fill="#3A2215"/>
<path d="M100.849,37.787C99.988,38.496 100.114,39.071 99.875,39.71C99.743,40.062 99.595,40.521 98.95,41.076C98.95,41.076 90.631,49.501 85.059,47.698C76.804,45.023 81.334,34.635 81.334,34.635L82.186,32.812C82.609,31.904 83.873,31.53 84.386,31.225C85.318,30.67 85.626,30.86 86.179,29.676C87.074,27.761 86.236,24.378 85.967,23.668C85.173,24.074 81.893,25.847 80.998,27.764C80.446,28.947 81.134,29.636 81.391,30.531C81.53,31.023 81.749,31.658 81.325,32.566L80.476,34.389C80.476,34.389 75.393,44.37 67.811,44.437C58.549,44.518 58.515,29.778 58.515,29.778C58.515,28.694 59.088,28.09 59.499,27.615C60.247,26.748 61.369,26.233 61.369,24.819C61.369,22.591 58.787,19.828 58.035,19.07L58.035,19.056C58.02,19.041 58.001,19.021 57.988,19.008C57.986,19.011 57.983,19.014 57.98,19.015C57.979,19.014 57.976,19.011 57.974,19.01C57.971,19.011 57.97,19.014 57.967,19.015C57.965,19.014 57.963,19.011 57.961,19.008C57.948,19.021 57.928,19.041 57.914,19.056L57.914,19.07C57.162,19.828 54.579,22.591 54.579,24.819C54.579,26.233 55.702,26.748 56.449,27.615C56.86,28.09 57.434,28.694 57.434,29.778C57.434,29.778 57.4,44.518 48.136,44.437C40.556,44.37 35.473,34.389 35.473,34.389L34.623,32.566C34.2,31.658 34.417,31.023 34.558,30.531C34.814,29.636 35.503,28.947 34.95,27.764C34.056,25.847 30.774,24.074 29.982,23.668C29.711,24.378 28.874,27.761 29.768,29.676C30.321,30.86 30.63,30.67 31.562,31.225C32.074,31.53 33.34,31.904 33.763,32.812L34.614,34.635C34.614,34.635 39.145,45.023 30.889,47.698C25.318,49.501 16.999,41.076 16.999,41.076C16.353,40.521 16.205,40.062 16.073,39.71C15.835,39.071 15.961,38.496 15.099,37.787C13.613,36.567 10.942,35.84 10.387,35.713C10.536,36.23 11.684,38.722 13.046,39.891C13.887,40.612 14.677,40.37 15.385,40.795C23.287,45.545 23.914,62.112 23.914,62.112L23.983,62.112C25.081,59.583 39.853,57.015 57.924,57.015C57.931,57.015 58.017,57.015 58.025,57.015C76.096,57.015 90.866,59.583 91.965,62.112L92.034,62.112C92.034,62.112 92.662,45.545 100.564,40.795C101.27,40.37 102.06,40.612 102.901,39.891C104.263,38.722 105.411,36.23 105.562,35.713C105.007,35.84 102.336,36.567 100.849,37.787Z" fill="#3A2215"/>
</svg>
