<svg width="48" height="48" viewBox="0 0 48 48" fill="none" xmlns="http://www.w3.org/2000/svg" xmlns:xlink="http://www.w3.org/1999/xlink">
<path d="M36,22C36,29.732 29.732,36 22,36L22,40C31.941,40 40,31.941 40,22L36,22ZM22,36C14.268,36 8,29.732 8,22L4,22C4,31.941 12.059,40 22,40L22,36ZM8,22C8,14.268 14.268,8 22,8L22,4C12.059,4 4,12.059 4,22L8,22ZM22,8C29.732,8 36,14.268 36,22L40,22C40,12.059 31.941,4 22,4L22,8Z" fill="#29180F"/>
<path d="M40.587,43.414C41.368,44.195 42.634,44.195 43.415,43.414C44.196,42.633 44.196,41.367 43.415,40.586L40.587,43.414ZM34.715,31.886C33.934,31.105 32.668,31.105 31.887,31.886C31.106,32.667 31.106,33.933 31.887,34.714L34.715,31.886ZM43.415,40.586L34.715,31.886L31.887,34.714L40.587,43.414L43.415,40.586Z" fill="#29180F"/>
</svg>
