<svg width="48" height="48" viewBox="0 0 48 48" fill="none" xmlns="http://www.w3.org/2000/svg" xmlns:xlink="http://www.w3.org/1999/xlink">
<path d="M12,4L12,2C11.37,2 10.778,2.296 10.4,2.8L12,4ZM6,12L4.4,10.8C4.14,11.146 4,11.567 4,12L6,12ZM6,40L4,40L6,40ZM42,12L44,12C44,11.567 43.86,11.146 43.6,10.8L42,12ZM36,4L37.6,2.8C37.222,2.296 36.63,2 36,2L36,4ZM10.4,2.8L4.4,10.8L7.6,13.2L13.6,5.2L10.4,2.8ZM4,12L4,40L8,40L8,12L4,12ZM4,40C4,41.591 4.632,43.117 5.757,44.243L8.586,41.414C8.211,41.039 8,40.53 8,40L4,40ZM5.757,44.243C6.883,45.368 8.409,46 10,46L10,42C9.47,42 8.961,41.789 8.586,41.414L5.757,44.243ZM10,46L38,46L38,42L10,42L10,46ZM38,46C39.591,46 41.117,45.368 42.243,44.243L39.414,41.414C39.039,41.789 38.53,42 38,42L38,46ZM42.243,44.243C43.368,43.117 44,41.591 44,40L40,40C40,40.53 39.789,41.039 39.414,41.414L42.243,44.243ZM44,40L44,12L40,12L40,40L44,40ZM43.6,10.8L37.6,2.8L34.4,5.2L40.4,13.2L43.6,10.8ZM36,2L12,2L12,6L36,6L36,2Z" fill="#29180F"/>
<line x1="6" y1="10" x2="42" y2="10" stroke="#29180F" stroke-width="2" stroke-miterlimit="3.999327" stroke-linecap="round" stroke-linejoin="round"/>
<path d="M34,20C34,18.895 33.105,18 32,18C30.895,18 30,18.895 30,20L34,20ZM24,28L24,30L24,28ZM18,20C18,18.895 17.105,18 16,18C14.895,18 14,18.895 14,20L18,20ZM30,20C30,21.591 29.368,23.117 28.243,24.243L31.071,27.071C32.946,25.196 34,22.652 34,20L30,20ZM28.243,24.243C27.117,25.368 25.591,26 24,26L24,30C26.652,30 29.196,28.946 31.071,27.071L28.243,24.243ZM24,26C22.409,26 20.883,25.368 19.757,24.243L16.929,27.071C18.804,28.946 21.348,30 24,30L24,26ZM19.757,24.243C18.632,23.117 18,21.591 18,20L14,20C14,22.652 15.054,25.196 16.929,27.071L19.757,24.243Z" fill="#29180F"/>
</svg>
