<svg width="48" height="48" viewBox="0 0 48 48" fill="none" xmlns="http://www.w3.org/2000/svg" xmlns:xlink="http://www.w3.org/1999/xlink">
<path d="M41,42C41,43.105 41.895,44 43,44C44.105,44 45,43.105 45,42L41,42ZM33.5,26L33.5,24L33.5,26ZM14.5,26L14.5,24L14.5,26ZM5,36.667L3,36.667L5,36.667ZM3,42C3,43.105 3.895,44 5,44C6.105,44 7,43.105 7,42L3,42ZM45,42L45,36.667L41,36.667L41,42L45,42ZM45,36.667C45,33.377 43.838,30.183 41.711,27.794L38.724,30.454C40.16,32.067 41,34.298 41,36.667L45,36.667ZM41.711,27.794C39.577,25.398 36.63,24 33.5,24L33.5,28C35.409,28 37.295,28.85 38.724,30.454L41.711,27.794ZM33.5,24L14.5,24L14.5,28L33.5,28L33.5,24ZM14.5,24C11.37,24 8.423,25.398 6.289,27.794L9.276,30.454C10.705,28.85 12.591,28 14.5,28L14.5,24ZM6.289,27.794C4.162,30.183 3,33.377 3,36.667L7,36.667C7,34.298 7.84,32.067 9.276,30.454L6.289,27.794ZM3,36.667L3,42L7,42L7,36.667L3,36.667Z" fill="#29180F"/>
<path d="M31,13C31,16.866 27.866,20 24,20L24,24C30.075,24 35,19.075 35,13L31,13ZM24,20C20.134,20 17,16.866 17,13L13,13C13,19.075 17.925,24 24,24L24,20ZM17,13C17,9.134 20.134,6 24,6L24,2C17.925,2 13,6.925 13,13L17,13ZM24,6C27.866,6 31,9.134 31,13L35,13C35,6.925 30.075,2 24,2L24,6Z" fill="#29180F"/>
<line x1="5" y1="40" x2="43" y2="40" stroke="#000000" stroke-width="2" stroke-miterlimit="3.999327"/>
</svg>
