<svg width="86" height="56" viewBox="0 0 86 56" fill="none" xmlns="http://www.w3.org/2000/svg" xmlns:xlink="http://www.w3.org/1999/xlink">
<path d="M78.598,14.5L66.867,14.5C66.81,14.502 66.753,14.497 66.697,14.486C66.641,14.476 66.587,14.459 66.535,14.436C66.482,14.413 66.432,14.386 66.386,14.352C66.34,14.319 66.298,14.282 66.26,14.238C66.223,14.197 66.191,14.15 66.164,14.101C66.136,14.05 66.115,13.999 66.1,13.945C66.084,13.891 66.075,13.835 66.072,13.778C66.069,13.723 66.072,13.667 66.081,13.612L67.699,1.388C67.707,1.333 67.711,1.277 67.708,1.221C67.705,1.165 67.696,1.11 67.68,1.056C67.664,1.002 67.644,0.95 67.617,0.901C67.59,0.852 67.558,0.805 67.521,0.764C67.483,0.72 67.441,0.683 67.396,0.65C67.35,0.616 67.301,0.587 67.249,0.565C67.198,0.542 67.143,0.525 67.087,0.514C67.032,0.504 66.975,0.499 66.917,0.5L14.885,0.5C14.675,0.505 14.468,0.529 14.262,0.569C14.057,0.61 13.857,0.669 13.662,0.744C13.467,0.82 13.281,0.911 13.102,1.019C12.924,1.127 12.755,1.249 12.599,1.385C12.442,1.522 12.298,1.67 12.168,1.832C12.038,1.993 11.923,2.164 11.823,2.345C11.723,2.526 11.639,2.714 11.573,2.909C11.506,3.105 11.458,3.305 11.427,3.508L11.102,5.964L31.161,5.964C31.349,5.96 31.536,5.975 31.72,6.011C31.905,6.047 32.085,6.102 32.256,6.176C32.43,6.251 32.592,6.343 32.744,6.453C32.895,6.562 33.034,6.688 33.157,6.827C33.281,6.967 33.389,7.118 33.478,7.281C33.568,7.444 33.639,7.615 33.69,7.794C33.742,7.972 33.773,8.153 33.784,8.339C33.795,8.524 33.784,8.708 33.753,8.891C33.723,9.089 33.675,9.283 33.61,9.474C33.545,9.663 33.463,9.846 33.366,10.022C33.268,10.198 33.156,10.364 33.029,10.521C32.902,10.678 32.762,10.823 32.61,10.956C32.456,11.087 32.293,11.206 32.12,11.312C31.946,11.416 31.764,11.506 31.575,11.579C31.385,11.652 31.19,11.709 30.991,11.749C30.792,11.788 30.589,11.811 30.386,11.817L3.098,11.817C2.962,11.818 2.828,11.831 2.695,11.857C2.561,11.881 2.43,11.917 2.304,11.964C2.177,12.012 2.056,12.07 1.939,12.139C1.823,12.208 1.714,12.287 1.611,12.374C1.509,12.462 1.416,12.559 1.331,12.663C1.247,12.767 1.171,12.877 1.107,12.995C1.042,13.112 0.989,13.234 0.946,13.361C0.903,13.487 0.872,13.617 0.853,13.75L0.853,13.805C0.834,13.923 0.828,14.043 0.835,14.164C0.842,14.284 0.863,14.403 0.897,14.519C0.93,14.634 0.976,14.745 1.035,14.852C1.092,14.957 1.162,15.056 1.242,15.148C1.323,15.239 1.411,15.32 1.51,15.392C1.608,15.464 1.714,15.525 1.825,15.574C1.937,15.623 2.053,15.661 2.173,15.686C2.293,15.71 2.415,15.722 2.536,15.721L29.886,15.721C30.075,15.716 30.261,15.73 30.447,15.766C30.631,15.802 30.81,15.857 30.983,15.931C31.155,16.006 31.317,16.098 31.469,16.208C31.62,16.318 31.758,16.443 31.882,16.583C32.005,16.722 32.113,16.874 32.202,17.037C32.292,17.2 32.361,17.371 32.412,17.549C32.464,17.727 32.495,17.909 32.505,18.094C32.515,18.28 32.505,18.463 32.473,18.646C32.443,18.845 32.395,19.039 32.331,19.229C32.266,19.419 32.185,19.602 32.087,19.778C31.99,19.955 31.877,20.121 31.751,20.278C31.624,20.434 31.484,20.579 31.331,20.712C31.178,20.845 31.015,20.963 30.842,21.068C30.667,21.173 30.486,21.262 30.296,21.335C30.107,21.408 29.912,21.465 29.712,21.505C29.512,21.544 29.31,21.567 29.106,21.572L8.823,21.572C8.69,21.576 8.558,21.591 8.427,21.618C8.296,21.644 8.169,21.681 8.045,21.729C7.922,21.777 7.803,21.836 7.689,21.904C7.576,21.972 7.469,22.05 7.369,22.138C7.269,22.224 7.177,22.318 7.094,22.421C7.012,22.525 6.938,22.634 6.875,22.749C6.812,22.864 6.758,22.983 6.715,23.107C6.674,23.231 6.642,23.358 6.623,23.488L6.623,23.543C6.603,23.663 6.597,23.783 6.605,23.902C6.612,24.023 6.633,24.141 6.667,24.257C6.7,24.373 6.746,24.485 6.804,24.59C6.863,24.697 6.931,24.795 7.012,24.886C7.092,24.977 7.181,25.059 7.28,25.132C7.377,25.203 7.483,25.263 7.594,25.314C7.706,25.363 7.822,25.4 7.943,25.424C8.062,25.449 8.184,25.461 8.306,25.459L28.595,25.459C28.782,25.456 28.967,25.473 29.15,25.509C29.333,25.546 29.509,25.602 29.68,25.677C29.849,25.751 30.01,25.843 30.16,25.953C30.31,26.063 30.447,26.186 30.569,26.325C30.69,26.464 30.796,26.614 30.885,26.775C30.974,26.937 31.044,27.106 31.095,27.282C31.146,27.458 31.177,27.638 31.188,27.821C31.2,28.005 31.19,28.187 31.161,28.369C31.13,28.567 31.083,28.761 31.018,28.951C30.954,29.142 30.872,29.325 30.776,29.501C30.678,29.677 30.566,29.844 30.438,30.001C30.311,30.158 30.171,30.303 30.019,30.436C29.867,30.569 29.703,30.687 29.529,30.791C29.355,30.896 29.173,30.985 28.983,31.059C28.793,31.132 28.598,31.188 28.398,31.227C28.198,31.267 27.997,31.29 27.793,31.295L6.123,31.295C5.99,31.298 5.857,31.314 5.727,31.34C5.597,31.365 5.47,31.404 5.346,31.452C5.221,31.499 5.103,31.558 4.99,31.626C4.876,31.695 4.769,31.773 4.669,31.86C4.569,31.946 4.478,32.041 4.395,32.144C4.312,32.246 4.239,32.355 4.176,32.47C4.112,32.585 4.059,32.705 4.016,32.829C3.974,32.954 3.943,33.081 3.923,33.21C3.904,33.329 3.898,33.449 3.905,33.57C3.912,33.69 3.933,33.808 3.967,33.924C4,34.039 4.046,34.151 4.105,34.257C4.162,34.363 4.232,34.462 4.312,34.553C4.393,34.644 4.481,34.726 4.58,34.798C4.678,34.87 4.784,34.931 4.895,34.98C5.007,35.03 5.123,35.066 5.243,35.091C5.363,35.116 5.485,35.127 5.606,35.126L7.229,35.126L6.257,42.563C6.225,42.751 6.215,42.94 6.225,43.129C6.236,43.32 6.268,43.507 6.321,43.69C6.373,43.873 6.446,44.049 6.537,44.217C6.63,44.385 6.74,44.541 6.867,44.684C6.993,44.828 7.135,44.956 7.291,45.069C7.447,45.182 7.614,45.278 7.792,45.354C7.968,45.431 8.152,45.487 8.342,45.524C8.533,45.56 8.724,45.576 8.918,45.571L13.043,45.571C12.297,51.17 16.315,55.708 22.007,55.708C27.697,55.708 32.912,51.17 33.658,45.571L55.199,45.571C54.458,51.17 58.476,55.708 64.179,55.708C69.881,55.708 75.084,51.17 75.825,45.571L81.56,45.571C81.687,45.567 81.808,45.544 81.925,45.497C82.042,45.451 82.148,45.387 82.241,45.304C82.334,45.22 82.411,45.124 82.47,45.015C82.528,44.905 82.566,44.789 82.583,44.667L84.749,28.329L78.598,14.5ZM29.505,45.77C29.431,46.163 29.327,46.548 29.189,46.924C29.05,47.3 28.882,47.662 28.682,48.01C28.482,48.359 28.254,48.689 27.998,48.999C27.743,49.309 27.463,49.598 27.158,49.863C26.854,50.126 26.53,50.365 26.185,50.577C25.839,50.788 25.479,50.97 25.102,51.122C24.727,51.274 24.341,51.394 23.945,51.482C23.549,51.571 23.148,51.627 22.742,51.65C22.538,51.662 22.335,51.662 22.131,51.653C21.928,51.642 21.725,51.619 21.524,51.585C21.323,51.552 21.125,51.508 20.928,51.451C20.733,51.395 20.541,51.329 20.353,51.251C20.165,51.173 19.983,51.086 19.805,50.988C19.627,50.889 19.455,50.782 19.29,50.664C19.125,50.547 18.966,50.421 18.816,50.286C18.665,50.15 18.524,50.006 18.39,49.855C18.256,49.704 18.131,49.545 18.016,49.38C17.901,49.214 17.795,49.043 17.7,48.866C17.605,48.689 17.52,48.508 17.445,48.321C17.371,48.134 17.307,47.943 17.256,47.749C17.204,47.555 17.164,47.359 17.134,47.161C17.105,46.962 17.087,46.763 17.081,46.562C17.076,46.362 17.081,46.162 17.099,45.962C17.116,45.762 17.145,45.564 17.186,45.367C17.257,44.974 17.362,44.591 17.5,44.216C17.638,43.841 17.806,43.48 18.005,43.133C18.203,42.785 18.43,42.456 18.685,42.146C18.939,41.835 19.217,41.548 19.521,41.283C19.824,41.018 20.147,40.781 20.491,40.569C20.834,40.357 21.193,40.175 21.567,40.023C21.941,39.869 22.326,39.748 22.721,39.658C23.116,39.569 23.516,39.511 23.92,39.487C24.124,39.474 24.329,39.473 24.533,39.482C24.737,39.492 24.94,39.514 25.141,39.546C25.344,39.578 25.542,39.623 25.74,39.678C25.936,39.733 26.129,39.799 26.318,39.877C26.506,39.953 26.69,40.041 26.87,40.139C27.049,40.236 27.221,40.344 27.386,40.461C27.553,40.579 27.712,40.704 27.863,40.84C28.014,40.975 28.158,41.119 28.292,41.27C28.427,41.422 28.552,41.58 28.669,41.746C28.784,41.912 28.89,42.083 28.987,42.261C29.083,42.438 29.168,42.621 29.243,42.808C29.317,42.995 29.38,43.187 29.433,43.381C29.485,43.575 29.526,43.772 29.556,43.972C29.585,44.17 29.603,44.371 29.609,44.572C29.615,44.772 29.609,44.973 29.592,45.173C29.574,45.375 29.546,45.573 29.505,45.77ZM71.666,45.77C71.594,46.163 71.489,46.546 71.351,46.921C71.213,47.296 71.045,47.657 70.847,48.004C70.648,48.352 70.421,48.681 70.166,48.992C69.913,49.302 69.634,49.589 69.33,49.854C69.027,50.119 68.704,50.356 68.36,50.568C68.018,50.78 67.658,50.962 67.284,51.115C66.91,51.268 66.525,51.389 66.13,51.479C65.735,51.569 65.335,51.625 64.931,51.65C64.727,51.662 64.524,51.662 64.32,51.653C64.117,51.642 63.914,51.619 63.713,51.585C63.512,51.552 63.314,51.508 63.119,51.451C62.922,51.395 62.731,51.329 62.542,51.251C62.354,51.173 62.172,51.086 61.994,50.988C61.816,50.889 61.644,50.782 61.479,50.664C61.314,50.547 61.156,50.421 61.005,50.286C60.855,50.15 60.713,50.006 60.579,49.855C60.445,49.704 60.32,49.545 60.206,49.38C60.09,49.214 59.984,49.043 59.889,48.866C59.794,48.689 59.708,48.508 59.634,48.321C59.56,48.134 59.498,47.943 59.445,47.749C59.393,47.555 59.353,47.359 59.323,47.161C59.294,46.962 59.277,46.763 59.271,46.562C59.265,46.362 59.271,46.162 59.288,45.962C59.305,45.762 59.334,45.564 59.375,45.367C59.448,44.974 59.553,44.591 59.69,44.216C59.827,43.841 59.995,43.48 60.194,43.133C60.392,42.785 60.619,42.456 60.874,42.146C61.128,41.835 61.407,41.548 61.71,41.283C62.013,41.018 62.336,40.781 62.68,40.569C63.023,40.357 63.382,40.175 63.757,40.023C64.131,39.869 64.515,39.748 64.91,39.658C65.305,39.569 65.705,39.511 66.109,39.487C66.313,39.475 66.516,39.474 66.72,39.485C66.923,39.496 67.126,39.518 67.327,39.552C67.528,39.585 67.727,39.63 67.923,39.686C68.118,39.741 68.31,39.808 68.498,39.886C68.686,39.964 68.87,40.051 69.046,40.15C69.224,40.248 69.396,40.356 69.562,40.473C69.727,40.591 69.885,40.716 70.035,40.852C70.186,40.987 70.327,41.131 70.461,41.282C70.595,41.433 70.72,41.592 70.836,41.758C70.951,41.923 71.056,42.094 71.151,42.27C71.247,42.448 71.332,42.63 71.406,42.817C71.48,43.004 71.544,43.194 71.596,43.388C71.647,43.582 71.689,43.779 71.717,43.976C71.746,44.175 71.764,44.374 71.77,44.575C71.776,44.776 71.77,44.976 71.753,45.176C71.735,45.376 71.707,45.573 71.666,45.77ZM64.185,28.346L65.357,19.512L75.903,19.512L79.955,28.386L64.185,28.346Z" fill="#3A2215"/>
</svg>
