<svg width="30" height="28" viewBox="0 0 30 28" fill="none" xmlns="http://www.w3.org/2000/svg" xmlns:xlink="http://www.w3.org/1999/xlink">
<path d="M29.84,10.419L29.959,10.787C30.058,11.065 29.975,11.375 29.75,11.568L22.48,17.684L24.634,26.85C24.707,27.143 24.595,27.451 24.35,27.631L24.02,27.852C23.893,27.951 23.734,28.003 23.572,28C23.435,28.003 23.3,27.967 23.183,27.897L15,22.989L6.863,27.897C6.746,27.967 6.611,28.003 6.474,28C6.311,28.003 6.153,27.951 6.025,27.852L5.651,27.631C5.406,27.451 5.294,27.143 5.367,26.85L7.521,17.684L0.266,11.583C0.029,11.39 -0.06,11.073 0.041,10.787L0.206,10.419C0.294,10.128 0.557,9.922 0.864,9.903L10.423,9.152L14.088,0.472C14.205,0.183 14.491,-0.004 14.806,0L15.195,0C15.507,-0.006 15.789,0.183 15.898,0.472L19.623,9.152L29.181,9.903C29.489,9.922 29.752,10.128 29.84,10.419ZM21.163,23.667L19.488,16.77L24.978,12.158L17.783,11.598L15,5.025L15,19.968L21.163,23.667Z" clip-rule="evenodd" fill-rule="evenodd" fill="#C9B079"/>
</svg>
