<svg width="66" height="80" viewBox="0 0 66 80" fill="none" xmlns="http://www.w3.org/2000/svg" xmlns:xlink="http://www.w3.org/1999/xlink">
<path d="M10.751,35.95C10.524,37.59 10.289,39.233 10.062,40.873C9.914,41.93 9.772,42.984 9.627,44.05C9.82,44.107 9.947,44.155 10.078,44.18C12.585,44.649 15.085,45.144 17.602,45.559C18.179,45.641 18.704,45.851 19.176,46.194C19.649,46.538 20.011,46.972 20.267,47.496C20.806,48.513 21.339,49.531 21.876,50.546C22.58,51.867 23.282,53.19 24.004,54.557C24.217,54.463 24.393,54.388 24.564,54.307C26.819,53.246 29.076,52.197 31.324,51.12C31.836,50.857 32.38,50.727 32.954,50.729C33.529,50.733 34.07,50.869 34.578,51.138C36.793,52.234 39.017,53.313 41.24,54.396C41.388,54.469 41.546,54.526 41.709,54.595C41.825,54.39 41.927,54.225 42.023,54.054C43.212,51.908 44.402,49.761 45.589,47.613C45.845,47.116 46.197,46.705 46.647,46.377C47.099,46.05 47.598,45.841 48.148,45.751C49.603,45.486 51.067,45.263 52.526,45.021C53.671,44.829 54.816,44.635 55.994,44.434C55.967,44.161 55.953,43.95 55.928,43.739C55.634,41.278 55.343,38.826 55.043,36.369C54.96,35.818 55.008,35.28 55.189,34.754C55.37,34.228 55.661,33.773 56.065,33.391C56.615,32.838 57.152,32.274 57.695,31.713L61.603,27.67C61.451,27.492 61.326,27.346 61.195,27.207C59.502,25.372 57.81,23.541 56.115,21.711C55.753,21.342 55.493,20.912 55.332,20.421C55.17,19.931 55.126,19.43 55.201,18.918C55.464,16.91 55.768,14.907 56.051,12.899C56.155,12.177 56.246,11.452 56.344,10.726C56.171,10.676 56.082,10.645 55.992,10.626C53.473,10.125 50.954,9.601 48.429,9.14C47.892,9.052 47.402,8.846 46.963,8.524C46.524,8.201 46.18,7.796 45.935,7.309C45.518,6.56 45.131,5.794 44.731,5.036C43.876,3.421 43.018,1.808 42.127,0.131C39.631,1.275 37.207,2.375 34.79,3.502C34.287,3.759 33.754,3.886 33.187,3.882C32.623,3.878 32.092,3.747 31.593,3.484C29.621,2.507 27.641,1.549 25.663,0.587C25.266,0.39 24.868,0.202 24.439,0C24.291,0.259 24.164,0.474 24.044,0.693C22.89,2.772 21.727,4.844 20.588,6.929C20.323,7.451 19.955,7.885 19.48,8.23C19.008,8.572 18.481,8.787 17.902,8.877C15.487,9.296 13.076,9.745 10.655,10.14C10.078,10.233 9.939,10.436 10.016,11.006C10.332,13.381 10.566,15.767 10.901,18.14C11.013,18.756 10.974,19.359 10.782,19.954C10.593,20.548 10.272,21.062 9.824,21.496C8.151,23.214 6.512,24.961 4.859,26.695C4.728,26.835 4.605,26.979 4.466,27.136C4.618,27.311 4.74,27.461 4.87,27.603C6.523,29.419 8.178,31.235 9.833,33.047C10.205,33.433 10.472,33.879 10.634,34.391C10.797,34.9 10.834,35.42 10.751,35.95ZM32.944,9.762C33.518,9.762 34.093,9.789 34.663,9.845C35.236,9.902 35.804,9.985 36.368,10.096C36.931,10.208 37.489,10.348 38.038,10.515C38.588,10.682 39.129,10.874 39.66,11.093C40.191,11.315 40.709,11.559 41.215,11.83C41.723,12.102 42.214,12.396 42.693,12.715C43.172,13.035 43.632,13.377 44.076,13.742C44.521,14.107 44.946,14.491 45.352,14.898C45.76,15.305 46.145,15.731 46.509,16.176C46.874,16.62 47.215,17.082 47.536,17.56C47.854,18.038 48.15,18.53 48.421,19.037C48.691,19.544 48.937,20.064 49.158,20.594C49.376,21.127 49.57,21.667 49.736,22.218C49.903,22.767 50.042,23.324 50.155,23.888C50.267,24.454 50.353,25.021 50.409,25.593C50.465,26.165 50.492,26.739 50.492,27.315C50.492,27.889 50.465,28.463 50.407,29.035C50.35,29.609 50.267,30.177 50.155,30.74C50.042,31.304 49.903,31.861 49.736,32.412C49.57,32.961 49.376,33.504 49.155,34.034C48.935,34.566 48.689,35.084 48.418,35.591C48.148,36.098 47.852,36.591 47.534,37.069C47.213,37.547 46.872,38.008 46.507,38.452C46.143,38.897 45.758,39.323 45.35,39.73C44.944,40.137 44.519,40.521 44.074,40.886C43.63,41.251 43.168,41.591 42.691,41.911C42.212,42.23 41.721,42.527 41.213,42.796C40.707,43.067 40.187,43.313 39.656,43.533C39.125,43.752 38.586,43.946 38.034,44.113C37.484,44.28 36.929,44.418 36.364,44.53C35.8,44.641 35.234,44.726 34.661,44.781C34.089,44.837 33.516,44.864 32.942,44.864C32.367,44.864 31.795,44.835 31.222,44.779C30.65,44.722 30.083,44.637 29.519,44.524C28.955,44.411 28.399,44.271 27.849,44.104C27.3,43.937 26.759,43.743 26.228,43.522C25.699,43.301 25.18,43.055 24.672,42.783C24.167,42.512 23.675,42.216 23.196,41.896C22.72,41.577 22.26,41.235 21.816,40.869C21.371,40.504 20.946,40.118 20.54,39.711C20.134,39.302 19.751,38.876 19.387,38.431C19.022,37.987 18.681,37.526 18.362,37.046C18.044,36.568 17.748,36.075 17.48,35.568C17.209,35.061 16.963,34.541 16.745,34.009C16.526,33.476 16.332,32.936 16.166,32.385C16.001,31.834 15.862,31.277 15.749,30.713C15.639,30.149 15.556,29.582 15.5,29.008C15.446,28.436 15.416,27.862 15.418,27.288C15.421,26.714 15.45,26.14 15.508,25.57C15.564,24.998 15.65,24.433 15.762,23.869C15.876,23.308 16.016,22.75 16.185,22.201C16.351,21.653 16.545,21.114 16.765,20.584C16.986,20.054 17.232,19.536 17.502,19.031C17.773,18.526 18.069,18.033 18.387,17.557C18.706,17.079 19.047,16.62 19.412,16.176C19.776,15.733 20.161,15.31 20.567,14.903C20.973,14.498 21.398,14.114 21.839,13.748C22.282,13.385 22.743,13.043 23.219,12.724C23.696,12.406 24.187,12.11 24.693,11.841C25.199,11.569 25.718,11.323 26.246,11.104C26.775,10.885 27.314,10.691 27.864,10.524C28.412,10.357 28.967,10.217 29.529,10.104C30.092,9.991 30.658,9.906 31.228,9.849C31.799,9.791 32.371,9.762 32.944,9.762ZM32.842,41.372C33.302,41.374 33.762,41.356 34.22,41.314C34.678,41.272 35.134,41.21 35.586,41.122C36.037,41.036 36.485,40.928 36.926,40.798C37.368,40.667 37.803,40.514 38.23,40.341C38.656,40.168 39.073,39.976 39.481,39.761C39.889,39.546 40.285,39.314 40.67,39.06C41.053,38.807 41.425,38.536 41.783,38.246C42.142,37.956 42.483,37.651 42.812,37.327C43.139,37.004 43.451,36.664 43.745,36.311C44.04,35.956 44.317,35.589 44.575,35.207C44.833,34.827 45.073,34.432 45.294,34.027C45.512,33.623 45.712,33.209 45.891,32.784C46.07,32.36 46.228,31.928 46.366,31.487C46.503,31.047 46.618,30.602 46.711,30.152C46.803,29.701 46.874,29.246 46.922,28.787C46.972,28.329 46.997,27.868 46.999,27.409C47.003,26.948 46.984,26.489 46.94,26.029C46.899,25.57 46.834,25.115 46.749,24.662C46.661,24.209 46.553,23.763 46.422,23.32C46.291,22.878 46.139,22.444 45.966,22.018C45.793,21.59 45.6,21.172 45.385,20.765C45.171,20.358 44.938,19.962 44.684,19.576C44.43,19.192 44.159,18.82 43.87,18.461C43.58,18.104 43.272,17.762 42.949,17.432C42.627,17.105 42.287,16.794 41.933,16.499C41.579,16.205 41.211,15.927 40.83,15.671C40.449,15.412 40.056,15.172 39.652,14.953C39.248,14.733 38.833,14.533 38.409,14.354C37.984,14.176 37.553,14.018 37.112,13.882C36.672,13.744 36.227,13.629 35.777,13.538C35.325,13.444 34.872,13.375 34.414,13.327C33.956,13.279 33.495,13.254 33.035,13.249C32.575,13.247 32.117,13.266 31.657,13.31C31.199,13.352 30.743,13.416 30.291,13.504C29.84,13.592 29.394,13.7 28.953,13.832C28.511,13.961 28.076,14.116 27.65,14.289C27.225,14.462 26.806,14.656 26.4,14.871C25.992,15.086 25.597,15.32 25.212,15.575C24.829,15.827 24.458,16.101 24.1,16.391C23.742,16.681 23.4,16.988 23.074,17.311C22.745,17.635 22.434,17.975 22.141,18.33C21.847,18.685 21.57,19.052 21.312,19.434C21.054,19.816 20.817,20.208 20.596,20.613C20.378,21.02 20.178,21.433 20.001,21.859C19.822,22.283 19.663,22.715 19.528,23.155C19.393,23.596 19.278,24.042 19.187,24.493C19.093,24.944 19.024,25.399 18.976,25.858C18.929,26.317 18.904,26.777 18.901,27.236C18.899,27.697 18.922,28.154 18.966,28.611C19.01,29.068 19.076,29.523 19.164,29.974C19.253,30.425 19.362,30.87 19.495,31.31C19.626,31.75 19.778,32.182 19.953,32.608C20.128,33.032 20.321,33.447 20.536,33.854C20.75,34.259 20.983,34.656 21.237,35.038C21.489,35.422 21.76,35.791 22.049,36.148C22.339,36.505 22.645,36.847 22.967,37.173C23.29,37.501 23.627,37.812 23.979,38.106C24.331,38.398 24.697,38.676 25.078,38.932C25.457,39.191 25.849,39.431 26.253,39.65C26.654,39.87 27.067,40.07 27.489,40.249C27.912,40.429 28.343,40.588 28.78,40.725C29.217,40.863 29.661,40.978 30.11,41.072C30.56,41.168 31.012,41.239 31.47,41.289C31.926,41.339 32.382,41.366 32.842,41.372ZM24.929,26.741C25.02,26.647 25.122,26.564 25.232,26.491C25.343,26.418 25.457,26.357 25.58,26.309C25.703,26.261 25.83,26.226 25.959,26.203C26.088,26.18 26.219,26.171 26.35,26.175C26.482,26.18 26.613,26.196 26.74,26.228C26.869,26.259 26.992,26.303 27.11,26.361C27.229,26.418 27.341,26.484 27.446,26.566C27.552,26.645 27.647,26.735 27.733,26.835C28.553,27.641 29.346,28.465 30.2,29.331L35.344,24.172C36.264,23.247 37.187,22.325 38.109,21.402C38.194,21.3 38.288,21.208 38.392,21.127C38.496,21.043 38.609,20.974 38.727,20.914C38.846,20.855 38.969,20.809 39.098,20.776C39.225,20.743 39.356,20.722 39.489,20.717C39.62,20.711 39.752,20.717 39.883,20.738C40.014,20.761 40.141,20.795 40.266,20.843C40.389,20.891 40.505,20.951 40.618,21.022C40.728,21.095 40.83,21.179 40.926,21.273C41.019,21.365 41.103,21.469 41.176,21.579C41.246,21.69 41.307,21.807 41.357,21.93C41.405,22.053 41.44,22.181 41.461,22.312C41.482,22.444 41.49,22.575 41.486,22.707C41.48,22.84 41.461,22.97 41.427,23.099C41.394,23.228 41.348,23.352 41.29,23.47C41.232,23.589 41.161,23.7 41.08,23.804C40.997,23.909 40.905,24.005 40.805,24.09C37.759,27.152 34.705,30.212 31.645,33.266C31.555,33.368 31.457,33.46 31.349,33.541C31.241,33.623 31.126,33.689 31.003,33.746C30.881,33.802 30.754,33.846 30.622,33.873C30.489,33.902 30.356,33.917 30.221,33.917C30.085,33.917 29.952,33.902 29.821,33.873C29.688,33.846 29.561,33.802 29.438,33.746C29.315,33.689 29.201,33.623 29.092,33.541C28.984,33.46 28.886,33.368 28.797,33.266C27.537,32.02 26.288,30.765 25.049,29.505C24.951,29.419 24.866,29.325 24.787,29.221C24.71,29.118 24.643,29.008 24.589,28.891C24.533,28.776 24.489,28.655 24.458,28.53C24.427,28.405 24.408,28.277 24.404,28.148C24.398,28.018 24.404,27.891 24.425,27.764C24.446,27.637 24.477,27.511 24.523,27.39C24.568,27.269 24.625,27.154 24.693,27.046C24.762,26.935 24.839,26.835 24.929,26.741ZM64.588,66.97C65.038,67.761 65.484,68.556 66,69.47L65.18,69.47C61.52,69.47 57.858,69.483 54.196,69.462C53.998,69.447 53.8,69.462 53.607,69.506C53.411,69.552 53.228,69.622 53.055,69.723C52.882,69.823 52.728,69.946 52.593,70.092C52.455,70.238 52.345,70.401 52.257,70.58C50.636,73.511 48.978,76.425 47.338,79.343C47.234,79.526 47.124,79.706 46.951,80L35.659,60.389C35.357,59.965 34.98,59.625 34.528,59.368C34.076,59.111 33.591,58.961 33.073,58.917C32.469,58.909 31.897,59.042 31.357,59.316C30.818,59.591 30.375,59.978 30.027,60.474C24.448,70.111 22.268,73.958 21.593,75.225C21.406,75.577 20.515,77.111 19.322,79.178C19.228,79.34 19.122,79.497 18.985,79.718L15.849,74.3C15.127,73.052 14.396,71.81 13.686,70.555C13.599,70.38 13.486,70.224 13.353,70.082C13.218,69.94 13.068,69.819 12.897,69.723C12.729,69.625 12.55,69.554 12.358,69.51C12.169,69.466 11.977,69.449 11.781,69.462C8.101,69.483 4.42,69.47 0.739,69.468L0,69.468C0.117,69.241 0.189,69.076 0.277,68.917C4.116,62.117 7.953,55.317 11.786,48.517C11.817,48.433 11.863,48.358 11.923,48.291C11.983,48.225 12.054,48.174 12.135,48.137C12.219,48.099 12.304,48.078 12.393,48.074C12.483,48.07 12.57,48.085 12.654,48.116C13.967,48.385 15.3,48.575 16.613,48.844C16.907,48.922 17.136,49.089 17.296,49.345C18.5,51.506 19.674,53.685 20.848,55.86C20.946,56.085 21.065,56.298 21.206,56.498C21.348,56.696 21.51,56.88 21.689,57.047C21.87,57.214 22.064,57.36 22.274,57.485C22.486,57.611 22.707,57.713 22.938,57.792C23.171,57.872 23.409,57.926 23.65,57.955C23.894,57.984 24.137,57.988 24.383,57.966C24.627,57.945 24.866,57.899 25.099,57.826C25.334,57.755 25.559,57.661 25.774,57.542C27.069,56.966 28.168,56.546 29.086,56.016C30.002,55.488 30.985,55.123 31.897,54.597C32.171,54.43 32.469,54.344 32.79,54.34C33.012,54.34 33.223,54.388 33.425,54.482C35.567,55.549 37.745,56.544 39.866,57.657C40.087,57.776 40.318,57.872 40.557,57.945C40.797,58.018 41.04,58.066 41.29,58.089C41.54,58.114 41.788,58.112 42.037,58.084C42.285,58.059 42.529,58.007 42.768,57.932C43.008,57.857 43.237,57.759 43.455,57.638C43.674,57.517 43.878,57.375 44.069,57.212C44.259,57.049 44.432,56.87 44.586,56.671C44.74,56.475 44.875,56.264 44.985,56.041C46.064,53.904 47.303,51.846 48.446,49.742C48.523,49.575 48.635,49.439 48.785,49.331C48.935,49.224 49.099,49.16 49.282,49.139C50.688,48.905 52.083,48.655 53.475,48.373C53.55,48.344 53.627,48.331 53.706,48.333C53.788,48.335 53.865,48.354 53.938,48.387C54.01,48.421 54.073,48.465 54.129,48.523C54.183,48.581 54.225,48.648 54.252,48.723C57.681,54.812 61.126,60.892 64.588,66.97Z" fill="#3A2215"/>
</svg>
