<svg width="98" height="86" viewBox="0 0 98 86" fill="none" xmlns="http://www.w3.org/2000/svg" xmlns:xlink="http://www.w3.org/1999/xlink">
<path d="M90.443,7.603C88.049,5.193 85.206,3.281 82.076,1.976C78.947,0.671 75.593,0 72.206,0C68.819,0 65.465,0.671 62.335,1.976C59.206,3.281 56.363,5.193 53.968,7.603L48.999,12.603L44.029,7.603C39.192,2.736 32.632,0.003 25.792,0.003C18.951,0.003 12.391,2.736 7.554,7.603C2.717,12.47 0,19.07 0,25.952C0,32.835 2.717,39.435 7.554,44.301L12.524,49.302L48.999,86L85.474,49.302L90.443,44.301C92.839,41.892 94.739,39.032 96.036,35.883C97.333,32.735 98,29.36 98,25.952C98,22.544 97.333,19.17 96.036,16.021C94.739,12.873 92.839,10.012 90.443,7.603Z" fill="#89D3D2" stroke="#3A2215" stroke-width="2" stroke-miterlimit="3.999327" stroke-linecap="round" stroke-linejoin="round"/>
</svg>
