<svg width="30" height="28" viewBox="0 0 30 28" fill="none" xmlns="http://www.w3.org/2000/svg" xmlns:xlink="http://www.w3.org/1999/xlink">
<path d="M13.606,0.908C14.122,-0.303 15.878,-0.303 16.394,0.908L19.437,8.051C19.654,8.561 20.146,8.91 20.71,8.954L28.609,9.572C29.947,9.677 30.49,11.308 29.47,12.16L23.452,17.193C23.022,17.553 22.835,18.117 22.966,18.654L24.805,26.18C25.116,27.455 23.695,28.463 22.55,27.779L15.787,23.747C15.304,23.459 14.696,23.459 14.213,23.747L7.45,27.779C6.305,28.463 4.884,27.455 5.195,26.18L7.034,18.654C7.165,18.117 6.978,17.553 6.548,17.193L0.53,12.16C-0.49,11.308 0.053,9.677 1.391,9.572L9.29,8.954C9.854,8.91 10.346,8.561 10.563,8.051L13.606,0.908Z" fill="#C9B079"/>
</svg>
