<svg width="42" height="38" viewBox="0 0 42 38" fill="none" xmlns="http://www.w3.org/2000/svg" xmlns:xlink="http://www.w3.org/1999/xlink">
<path d="M37.68,3.22C36.659,2.198 35.446,1.387 34.111,0.834C32.776,0.281 31.345,-0.004 29.9,-0.004C28.455,-0.004 27.024,0.281 25.689,0.834C24.355,1.387 23.142,2.198 22.12,3.22L20,5.34L17.88,3.22C15.817,1.157 13.018,-0.003 10.1,-0.003C7.182,-0.003 4.384,1.157 2.32,3.22C0.257,5.283 -0.902,8.082 -0.902,11C-0.902,13.918 0.257,16.717 2.32,18.78L4.44,20.9L20,36.46L35.56,20.9L37.68,18.78C38.702,17.758 39.513,16.546 40.066,15.211C40.619,13.876 40.904,12.445 40.904,11C40.904,9.555 40.619,8.124 40.066,6.789C39.513,5.454 38.702,4.241 37.68,3.22Z" fill="#FFFFFF" stroke="#29180F" stroke-width="2" stroke-miterlimit="3.999327" stroke-linecap="round" stroke-linejoin="round"/>
</svg>
