<svg width="124" height="108" viewBox="0 0 124 108" fill="none" xmlns="http://www.w3.org/2000/svg" xmlns:xlink="http://www.w3.org/1999/xlink">
<path d="M114.438,9.548C111.409,6.521 107.811,4.12 103.852,2.481C99.892,0.843 95.648,0 91.362,0C87.077,0 82.833,0.843 78.873,2.481C74.914,4.12 71.316,6.521 68.286,9.548L61.998,15.827L55.71,9.548C49.59,3.437 41.29,0.003 32.634,0.003C23.979,0.003 15.679,3.437 9.558,9.548C3.438,15.659 0,23.948 0,32.591C0,41.234 3.438,49.523 9.558,55.634L15.846,61.914L61.998,108L108.15,61.914L114.438,55.634C117.47,52.609 119.874,49.017 121.515,45.063C123.156,41.109 124,36.871 124,32.591C124,28.311 123.156,24.074 121.515,20.12C119.874,16.166 117.47,12.574 114.438,9.548Z" fill="#89D3D2" stroke="#3A2215" stroke-width="2" stroke-miterlimit="3.999327" stroke-linecap="round" stroke-linejoin="round"/>
</svg>
